<svg xmlns="http://www.w3.org/2000/svg" version="1.1" xmlns:xlink="http://www.w3.org/1999/xlink" xmlns:svgjs="http://svgjs.dev/svgjs" viewBox="0 0 800 800"><defs><linearGradient x1="50%" y1="0%" x2="50%" y2="100%" id="ffflurry-grad" gradientTransform="rotate(270)"><stop stop-color="hsv(0, 0%, 0%)" stop-opacity="1" offset="0%"></stop><stop stop-color="hsl(1.4, 100%, 67%)" stop-opacity="1" offset="45%"></stop><stop stop-color="hsl(167, 52%, 78%)" stop-opacity="1" offset="100%"></stop></linearGradient></defs><rect width="100%" height="100%" fill="hsv(0, 0%, 0%)"></rect><g fill="url(#ffflurry-grad)"><rect width="339" height="3" x="166.5" y="56.5" rx="1.5" transform="rotate(45, 336, 58)" opacity="0.08"></rect><rect width="54" height="3" x="16" y="230.5" rx="1.5" transform="rotate(45, 43, 232)" opacity="0.89"></rect><rect width="157" height="3" x="472.5" y="295.5" rx="1.5" transform="rotate(45, 551, 297)" opacity="0.16"></rect><rect width="85" height="3" x="56.5" y="167.5" rx="1.5" transform="rotate(45, 99, 169)" opacity="0.09"></rect><rect width="369" height="3" x="532.5" y="377.5" rx="1.5" transform="rotate(45, 717, 379)" opacity="0.81"></rect><rect width="230" height="3" x="15" y="57.5" rx="1.5" transform="rotate(45, 130, 59)" opacity="0.81"></rect><rect width="258" height="3" x="144" y="734.5" rx="1.5" transform="rotate(45, 273, 736)" opacity="0.63"></rect><rect width="126" height="3" x="-23" y="53.5" rx="1.5" transform="rotate(45, 40, 55)" opacity="0.69"></rect><rect width="220" height="3" x="516" y="543.5" rx="1.5" transform="rotate(45, 626, 545)" opacity="0.33"></rect><rect width="202" height="3" x="317" y="660.5" rx="1.5" transform="rotate(45, 418, 662)" opacity="0.13"></rect><rect width="523" height="3" x="100.5" y="217.5" rx="1.5" transform="rotate(45, 362, 219)" opacity="0.96"></rect><rect width="544" height="3" x="392" y="714.5" rx="1.5" transform="rotate(45, 664, 716)" opacity="0.90"></rect><rect width="185" height="3" x="119.5" y="497.5" rx="1.5" transform="rotate(45, 212, 499)" opacity="0.48"></rect><rect width="289" height="3" x="74.5" y="104.5" rx="1.5" transform="rotate(45, 219, 106)" opacity="0.90"></rect><rect width="592" height="3" x="94" y="431.5" rx="1.5" transform="rotate(45, 390, 433)" opacity="0.18"></rect><rect width="400" height="3" x="27" y="295.5" rx="1.5" transform="rotate(45, 227, 297)" opacity="0.48"></rect><rect width="157" height="3" x="-18.5" y="548.5" rx="1.5" transform="rotate(45, 60, 550)" opacity="0.22"></rect><rect width="219" height="3" x="-29.5" y="361.5" rx="1.5" transform="rotate(45, 80, 363)" opacity="0.58"></rect><rect width="225" height="3" x="-43.5" y="731.5" rx="1.5" transform="rotate(45, 69, 733)" opacity="0.47"></rect><rect width="673" height="3" x="363.5" y="115.5" rx="1.5" transform="rotate(45, 700, 117)" opacity="0.73"></rect><rect width="290" height="3" x="32" y="655.5" rx="1.5" transform="rotate(45, 177, 657)" opacity="0.64"></rect><rect width="174" height="3" x="414" y="94.5" rx="1.5" transform="rotate(45, 501, 96)" opacity="0.64"></rect></g></svg>